<svg width="331" height="70" viewBox="0 0 331 70" fill="none" xmlns="http://www.w3.org/2000/svg">
<path d="M0 68.8175H26.8217L70.2098 23.0629C76.5208 17.5408 83.6207 23.8517 78.8874 30.9515L41.8103 68.8175H69.4209L87.565 49.0957C93.0872 45.1514 99.3982 50.6735 96.2427 56.9845L85.1984 69.6065H110.442C121.487 53.829 115.176 35.6849 99.3982 30.9515C108.076 7.28521 78.8874 -8.49179 63.1099 4.91867L0 68.8175Z" fill="url(#paint0_linear_1982_4378)"/>
<path d="M144.565 54.0338C146.303 54.5972 147.676 55.5011 148.685 56.7453C149.695 57.9661 150.2 59.3629 150.2 60.9359C150.2 62.4149 149.589 63.8117 148.368 65.1264C147.148 66.4176 145.622 67.4506 143.791 68.2253C141.959 69 140.222 69.3874 138.579 69.3874C137.405 69.3874 136.255 69.3287 135.128 69.2113C133.25 69.0939 131.794 69.0352 130.761 69.0352H125.937V67.5914L129.247 64.9855V44.2089L125.514 43.0821L126.395 41.3213H130.726C132.862 41.3213 134.963 41.2509 137.029 41.1101C138.626 41.0161 139.8 40.9692 140.551 40.9692C142.194 40.9692 143.638 41.2744 144.882 41.8848C146.126 42.4952 147.089 43.3286 147.77 44.385C148.451 45.418 148.791 46.5801 148.791 47.8713C148.791 49.0451 148.404 50.1719 147.629 51.2519C146.854 52.3083 145.833 53.2356 144.565 54.0338ZM143.262 49.5968C143.262 47.8126 142.805 46.3688 141.889 45.2654C140.973 44.1385 139.612 43.5751 137.804 43.5751C136.583 43.5751 135.468 43.8803 134.459 44.4907V53.7521H139.037C140.375 53.7521 141.408 53.3999 142.136 52.6956C142.887 51.9679 143.262 50.9349 143.262 49.5968ZM139.565 66.3237C141.138 66.3237 142.382 65.9363 143.298 65.1616C144.213 64.3634 144.671 63.2835 144.671 61.9219C144.671 60.1846 144.166 58.7878 143.157 57.7313C142.171 56.6514 140.703 56.0762 138.755 56.0058C138.591 56.0293 138.356 56.041 138.051 56.041H134.459V65.5138C135.891 66.1007 137.593 66.3941 139.565 66.3941V66.3237ZM164.003 69H153.65V67.5562L156.784 65.0208V55.5832L153.65 53.4352V51.9914L160.024 49.5263H161.715V66.0772L164.884 67.2393L164.003 69ZM159.144 38.9268C159.966 38.9268 160.646 39.2202 161.186 39.8071C161.726 40.3705 161.996 41.0748 161.996 41.92C161.996 42.5069 161.797 43.0703 161.398 43.6103C161.022 44.1268 160.541 44.5376 159.954 44.8428C159.39 45.148 158.839 45.3006 158.299 45.3006C157.477 45.3006 156.796 45.0189 156.256 44.4554C155.716 43.892 155.446 43.1877 155.446 42.3426C155.446 41.7322 155.634 41.1687 156.01 40.6523C156.409 40.1358 156.89 39.7249 157.454 39.4198C158.04 39.0911 158.604 38.9268 159.144 38.9268ZM182.226 64.07L183.74 61.0767L185.148 61.5345V69.6339L182.86 69H168.316V67.3097L179.761 55.1255H171.485L170.077 57.7313L168.668 57.3088V49.5616L170.957 50.1954H185.501V51.8857L174.126 64.07H182.226ZM238.766 69H228.413V67.5562L231.547 65.0208V55.5832L228.413 53.4352V51.9914L234.786 49.5263H236.477V66.0772L239.646 67.2393L238.766 69ZM233.906 38.9268C234.728 38.9268 235.409 39.2202 235.949 39.8071C236.488 40.3705 236.758 41.0748 236.758 41.92C236.758 42.5069 236.559 43.0703 236.16 43.6103C235.784 44.1268 235.303 44.5376 234.716 44.8428C234.153 45.148 233.601 45.3006 233.061 45.3006C232.239 45.3006 231.558 45.0189 231.018 44.4554C230.479 43.892 230.209 43.1877 230.209 42.3426C230.209 41.7322 230.396 41.1687 230.772 40.6523C231.171 40.1358 231.652 39.7249 232.216 39.4198C232.803 39.0911 233.366 38.9268 233.906 38.9268ZM252.058 69H241.705V67.5562L244.839 65.0208V44.3146L241.705 42.1665V40.7227L248.079 38.2577H249.769V66.0772L252.938 67.2393L252.058 69ZM265.332 69H254.979V67.5562L258.113 65.0208V44.3146L254.979 42.1665V40.7227L261.353 38.2577H263.043V66.0772L266.212 67.2393L265.332 69ZM279.311 69H268.958V67.5562L272.092 65.0208V55.5832L268.958 53.4352V51.9914L275.331 49.5263H277.022V66.0772L280.191 67.2393L279.311 69ZM274.451 38.9268C275.273 38.9268 275.953 39.2202 276.493 39.8071C277.033 40.3705 277.303 41.0748 277.303 41.92C277.303 42.5069 277.104 43.0703 276.705 43.6103C276.329 44.1268 275.848 44.5376 275.261 44.8428C274.697 45.148 274.146 45.3006 273.606 45.3006C272.784 45.3006 272.103 45.0189 271.563 44.4554C271.023 43.892 270.753 43.1877 270.753 42.3426C270.753 41.7322 270.941 41.1687 271.317 40.6523C271.716 40.1358 272.197 39.7249 272.761 39.4198C273.348 39.0911 273.911 38.9268 274.451 38.9268ZM294.434 49.8433C296.054 49.8433 297.509 50.2541 298.8 51.0758C300.092 51.874 301.089 52.9656 301.794 54.3507C302.521 55.7358 302.885 57.2735 302.885 58.9638C302.885 60.795 302.31 62.5088 301.16 64.1052C300.033 65.7016 298.613 66.981 296.899 67.9436C295.185 68.8826 293.53 69.3521 291.934 69.3521C290.314 69.3521 288.858 68.953 287.567 68.1549C286.299 67.3332 285.302 66.2298 284.574 64.8447C283.846 63.4361 283.482 61.8867 283.482 60.1964C283.482 58.3652 284.046 56.6632 285.172 55.0902C286.323 53.4938 287.755 52.2261 289.469 51.2871C291.182 50.3245 292.837 49.8433 294.434 49.8433ZM292.391 53.2239C291.218 53.2239 290.326 53.6699 289.715 54.562C289.128 55.4541 288.835 56.7688 288.835 58.5061C288.835 60.6424 289.281 62.4149 290.173 63.8235C291.065 65.232 292.333 65.9363 293.976 65.9363C296.371 65.9363 297.568 64.1639 297.568 60.6189C297.568 58.5061 297.122 56.7453 296.23 55.3367C295.338 53.9282 294.058 53.2239 292.391 53.2239ZM329.249 69H322.03V57.3792C322.03 56.1349 321.842 55.2781 321.467 54.8085C321.091 54.3155 320.434 54.069 319.495 54.069C318.791 54.069 318.086 54.1864 317.382 54.4212C316.678 54.6559 315.879 55.102 314.987 55.7593V66.0772L318.157 67.2393L317.276 69H306.923V67.5562L310.057 65.0208V55.865L306.923 53.9634V52.5196L313.473 49.5263L314.706 53.8929L319.46 50.125C319.953 49.9372 320.633 49.8433 321.502 49.8433C323.169 49.8433 324.495 50.3363 325.481 51.3223C326.467 52.2848 326.96 53.5995 326.96 55.2663V66.0772L330.13 67.2393L329.249 69Z" fill="#010506"/>
<path d="M224.307 69H212.898V67.5562L216.208 64.9503V46.4979L207.052 69H204.693L195.537 46.357V65.5138L199.305 67.2393L198.424 69H189.832V67.5562L193.142 64.9503V44.878L189.409 43.0821L190.29 41.3213H198.812L207.298 62.4501L215.75 41.3213H224.73V42.7651L221.384 45.371V66.0772L225.187 67.2393L224.307 69Z" fill="black"/>
<defs>
<linearGradient id="paint0_linear_1982_4378" x1="101.765" y1="16.752" x2="0.788875" y2="68.8177" gradientUnits="userSpaceOnUse">
<stop stop-color="#FFC700"/>
<stop offset="1" stop-color="white"/>
</linearGradient>
</defs>
</svg>
