<svg width="26" height="25" viewBox="0 0 26 25" fill="none" xmlns="http://www.w3.org/2000/svg">
<path d="M8.87437 13.0631L14.1869 18.3756C14.3379 18.5164 14.5377 18.593 14.7442 18.5894C14.9506 18.5857 15.1476 18.5021 15.2936 18.3561C15.4396 18.2101 15.5232 18.0131 15.5269 17.8067C15.5305 17.6002 15.4539 17.4004 15.3131 17.2494L11.362 13.2969H24.3125C24.5238 13.2969 24.7265 13.2129 24.876 13.0635C25.0254 12.914 25.1094 12.7113 25.1094 12.5C25.1094 12.2887 25.0254 12.086 24.876 11.9365C24.7265 11.7871 24.5238 11.7031 24.3125 11.7031H11.362L15.3131 7.75062C15.4539 7.59956 15.5305 7.39977 15.5269 7.19332C15.5232 6.98688 15.4396 6.7899 15.2936 6.6439C15.1476 6.4979 14.9506 6.41427 14.7442 6.41063C14.5377 6.40698 14.3379 6.48362 14.1869 6.62438L8.87437 11.9369C8.72515 12.0863 8.64133 12.2888 8.64133 12.5C8.64133 12.7112 8.72515 12.9137 8.87437 13.0631ZM0.9375 0.015625H9.4375C9.64884 0.015625 9.85153 0.0995811 10.001 0.249024C10.1504 0.398467 10.2344 0.601156 10.2344 0.8125C10.2344 1.02384 10.1504 1.22653 10.001 1.37598C9.85153 1.52542 9.64884 1.60938 9.4375 1.60938H1.73438V23.3906H9.4375C9.64884 23.3906 9.85153 23.4746 10.001 23.624C10.1504 23.7735 10.2344 23.9762 10.2344 24.1875C10.2344 24.3988 10.1504 24.6015 10.001 24.751C9.85153 24.9004 9.64884 24.9844 9.4375 24.9844H0.9375C0.726156 24.9844 0.523466 24.9004 0.374023 24.751C0.224581 24.6015 0.140625 24.3988 0.140625 24.1875V0.8125C0.140625 0.601156 0.224581 0.398467 0.374023 0.249024C0.523466 0.0995811 0.726156 0.015625 0.9375 0.015625Z" fill="#121212"/>
</svg>
