<svg width="91" height="50" viewBox="0 0 91 50" fill="none" xmlns="http://www.w3.org/2000/svg">
<path d="M0 33.8155H13.1796L34.4996 11.3326C37.6007 8.61916 41.0895 11.7203 38.7636 15.2089L20.5447 33.8155H34.112L43.0276 24.1246C45.7411 22.1864 48.8422 24.8999 47.2917 28.001L41.8647 34.2032H54.2691C59.696 26.4504 56.5949 17.5348 48.8422 15.2089C53.1062 3.5798 38.7636 -4.17269 31.0109 2.41693L0 33.8155Z" fill="url(#paint0_linear_1982_4381)"/>
<path d="M8.97832 42.4661C9.73676 42.7121 10.3363 43.1067 10.7771 43.6499C11.2178 44.1829 11.4381 44.7927 11.4381 45.4794C11.4381 46.1251 11.1717 46.7349 10.6387 47.3089C10.1057 47.8726 9.43953 48.3236 8.64009 48.6618C7.84065 49 7.08221 49.1691 6.36477 49.1691C5.85231 49.1691 5.35009 49.1435 4.85813 49.0922C4.03819 49.041 3.40274 49.0154 2.95178 49.0154H0.845561V48.385L2.2907 47.2474V38.1768L0.661075 37.6849L1.04542 36.9162H2.9364C3.86908 36.9162 4.78639 36.8854 5.68832 36.8239C6.38526 36.7829 6.89773 36.7624 7.2257 36.7624C7.94315 36.7624 8.57347 36.8957 9.11668 37.1621C9.65989 37.4286 10.0801 37.7925 10.3773 38.2537C10.6746 38.7047 10.8232 39.212 10.8232 39.7757C10.8232 40.2882 10.6541 40.7801 10.3158 41.2516C9.97762 41.7128 9.53178 42.1176 8.97832 42.4661ZM8.40949 40.529C8.40949 39.7501 8.20963 39.1198 7.80991 38.638C7.41019 38.1461 6.81573 37.9001 6.02654 37.9001C5.49358 37.9001 5.00674 38.0333 4.56603 38.2998V42.3431H6.56463C7.14883 42.3431 7.5998 42.1894 7.91752 41.8819C8.2455 41.5642 8.40949 41.1132 8.40949 40.529ZM6.79523 47.8316C7.48193 47.8316 8.02514 47.6625 8.42486 47.3243C8.82458 46.9758 9.02444 46.5043 9.02444 45.9099C9.02444 45.1514 8.80408 44.5416 8.36336 44.0804C7.9329 43.6089 7.29232 43.3578 6.44164 43.3271C6.36989 43.3373 6.2674 43.3424 6.13416 43.3424H4.56603V47.478C5.19123 47.7342 5.9343 47.8623 6.79523 47.8623V47.8316ZM17.4646 49H12.9446V48.3697L14.3129 47.2628V43.1426L12.9446 42.2048V41.5744L15.7273 40.4983H16.4653V47.724L17.8489 48.2313L17.4646 49ZM15.343 35.8707C15.7017 35.8707 15.9989 35.9989 16.2346 36.2551C16.4704 36.5011 16.5882 36.8086 16.5882 37.1775C16.5882 37.4338 16.5011 37.6797 16.3269 37.9155C16.1629 38.141 15.9528 38.3203 15.6966 38.4536C15.4506 38.5868 15.2097 38.6534 14.974 38.6534C14.6153 38.6534 14.318 38.5304 14.0823 38.2844C13.8466 38.0385 13.7287 37.731 13.7287 37.362C13.7287 37.0955 13.8107 36.8495 13.9747 36.6241C14.1489 36.3986 14.359 36.2192 14.605 36.086C14.8612 35.9425 15.1072 35.8707 15.343 35.8707ZM25.4199 46.8477L26.081 45.5409L26.6959 45.7407V49.2767L25.6966 49H19.3472V48.2621L24.3437 42.9427H20.7309L20.1159 44.0804L19.501 43.8959V40.5136L20.5003 40.7904H26.8497V41.5283L21.8839 46.8477H25.4199ZM43.7916 49H38.8105V48.3697L40.2557 47.232V39.1761L36.2585 49H35.2284L31.2312 39.1146V47.478L32.8762 48.2313L32.4919 49H28.7407V48.3697L30.1858 47.232V38.4689L28.5562 37.6849L28.9405 36.9162H32.661L36.3661 46.1405L40.0558 36.9162H43.9761V37.5465L42.5156 38.6842V47.724L44.176 48.2313L43.7916 49ZM50.1039 49H45.584V48.3697L46.9523 47.2628V43.1426L45.584 42.2048V41.5744L48.3667 40.4983H49.1046V47.724L50.4883 48.2313L50.1039 49ZM47.9823 35.8707C48.341 35.8707 48.6383 35.9989 48.874 36.2551C49.1097 36.5011 49.2276 36.8086 49.2276 37.1775C49.2276 37.4338 49.1405 37.6797 48.9662 37.9155C48.8023 38.141 48.5922 38.3203 48.3359 38.4536C48.0899 38.5868 47.8491 38.6534 47.6134 38.6534C47.2546 38.6534 46.9574 38.5304 46.7217 38.2844C46.4859 38.0385 46.3681 37.731 46.3681 37.362C46.3681 37.0955 46.4501 36.8495 46.6141 36.6241C46.7883 36.3986 46.9984 36.2192 47.2444 36.086C47.5006 35.9425 47.7466 35.8707 47.9823 35.8707ZM55.9069 49H51.387V48.3697L52.7553 47.2628V38.2229L51.387 37.2851V36.6548L54.1697 35.5786H54.9076V47.724L56.2913 48.2313L55.9069 49ZM61.7021 49H57.1822V48.3697L58.5505 47.2628V38.2229L57.1822 37.2851V36.6548L59.9649 35.5786H60.7028V47.724L62.0865 48.2313L61.7021 49ZM67.8048 49H63.2849V48.3697L64.6532 47.2628V43.1426L63.2849 42.2048V41.5744L66.0676 40.4983H66.8055V47.724L68.1892 48.2313L67.8048 49ZM65.6833 35.8707C66.042 35.8707 66.3392 35.9989 66.5749 36.2551C66.8107 36.5011 66.9285 36.8086 66.9285 37.1775C66.9285 37.4338 66.8414 37.6797 66.6672 37.9155C66.5032 38.141 66.2931 38.3203 66.0369 38.4536C65.7909 38.5868 65.55 38.6534 65.3143 38.6534C64.9556 38.6534 64.6583 38.5304 64.4226 38.2844C64.1869 38.0385 64.069 37.731 64.069 37.362C64.069 37.0955 64.151 36.8495 64.315 36.6241C64.4892 36.3986 64.6993 36.2192 64.9453 36.086C65.2015 35.9425 65.4475 35.8707 65.6833 35.8707ZM74.4073 40.6366C75.1145 40.6366 75.7499 40.816 76.3137 41.1747C76.8774 41.5232 77.313 41.9998 77.6204 42.6045C77.9382 43.2092 78.097 43.8805 78.097 44.6185C78.097 45.4179 77.8459 46.1661 77.3437 46.863C76.8517 47.56 76.2317 48.1186 75.4835 48.5388C74.7353 48.9488 74.0127 49.1537 73.3158 49.1537C72.6086 49.1537 71.9731 48.9795 71.4094 48.631C70.8559 48.2723 70.4204 47.7906 70.1026 47.1859C69.7849 46.5709 69.626 45.8945 69.626 45.1565C69.626 44.3571 69.872 43.614 70.364 42.9273C70.8662 42.2304 71.4914 41.6769 72.2396 41.267C72.9878 40.8467 73.7104 40.6366 74.4073 40.6366ZM73.5156 42.1125C73.0032 42.1125 72.6137 42.3073 72.3472 42.6967C72.091 43.0862 71.9629 43.6602 71.9629 44.4186C71.9629 45.3513 72.1576 46.1251 72.5471 46.74C72.9365 47.355 73.49 47.6625 74.2074 47.6625C75.2529 47.6625 75.7756 46.8887 75.7756 45.341C75.7756 44.4186 75.5808 43.6499 75.1914 43.035C74.8019 42.42 74.2433 42.1125 73.5156 42.1125ZM89.6069 49H86.4552V43.9266C86.4552 43.3834 86.3732 43.0093 86.2092 42.8043C86.0453 42.5891 85.7583 42.4815 85.3483 42.4815C85.0408 42.4815 84.7334 42.5327 84.4259 42.6352C84.1184 42.7377 83.7699 42.9325 83.3805 43.2194V47.724L84.7641 48.2313L84.3798 49H79.8598V48.3697L81.2281 47.2628V43.2656L79.8598 42.4354V41.805L82.7194 40.4983L83.2575 42.4046L85.3329 40.7596C85.5482 40.6776 85.8454 40.6366 86.2246 40.6366C86.9523 40.6366 87.5314 40.8519 87.9619 41.2823C88.3923 41.7026 88.6076 42.2765 88.6076 43.0042V47.724L89.9912 48.2313L89.6069 49Z" fill="black"/>
<defs>
<linearGradient id="paint0_linear_1982_4381" x1="50.0051" y1="8.2316" x2="0.387637" y2="33.8156" gradientUnits="userSpaceOnUse">
<stop stop-color="#FFC700"/>
<stop offset="1" stop-color="white"/>
</linearGradient>
</defs>
</svg>
